<?xml version="1.0" standalone="no"?>
<!DOCTYPE svg PUBLIC "-//W3C//DTD SVG 20010904//EN"
 "http://www.w3.org/TR/2001/REC-SVG-20010904/DTD/svg10.dtd">
<svg version="1.0" xmlns="http://www.w3.org/2000/svg"
 width="880.000000pt" height="1000.000000pt" viewBox="0 0 880.000000 1000.000000"
 preserveAspectRatio="xMidYMid meet">

<g transform="translate(0.000000,1000.000000) scale(0.100000,-0.100000)"
fill="#000000" stroke="none">
<path d="M0 5000 l0 -5000 4400 0 4400 0 0 5000 0 5000 -4400 0 -4400 0 0
-5000z m482 4924 c62 -25 131 -56 153 -68 22 -13 76 -43 120 -66 44 -23 118
-63 165 -90 87 -48 214 -119 306 -171 29 -16 85 -36 125 -44 214 -45 412 -135
963 -435 165 -90 306 -163 313 -163 7 0 11 -3 8 -5 -3 -3 40 -30 95 -61 80
-45 210 -121 310 -181 8 -5 96 -57 195 -116 99 -58 182 -110 183 -115 8 -20
31 -6 58 35 39 60 107 131 152 160 20 14 67 32 104 40 41 9 76 25 93 40 14 14
47 31 71 40 60 20 88 9 116 -48 26 -54 43 -63 65 -36 10 11 32 25 49 30 44 15
92 -10 165 -87 53 -55 74 -96 93 -183 3 -14 21 -41 40 -59 41 -40 48 -38 136
25 l51 37 -46 41 c-51 45 -54 72 -6 81 57 11 190 59 256 94 77 40 162 118 188
173 9 20 17 54 17 75 0 34 6 44 44 76 25 20 51 37 58 37 7 0 48 14 91 32 84
35 110 57 273 229 91 97 139 137 151 126 3 -3 -5 -36 -18 -73 l-23 -66 22 -39
22 -38 -28 -15 c-27 -14 -61 -70 -49 -82 3 -3 35 -12 72 -19 37 -8 87 -26 111
-40 41 -24 45 -25 73 -11 61 32 86 87 94 204 2 34 6 64 8 65 56 37 79 61 79
81 0 49 -33 163 -64 226 -27 54 -41 69 -79 89 -26 13 -47 29 -47 36 0 31 155
49 203 24 52 -27 117 -104 146 -174 48 -116 65 -220 58 -370 -9 -195 -43 -336
-119 -489 l-39 -78 20 -22 c12 -12 21 -28 21 -35 0 -16 -33 -64 -81 -117 -20
-23 -44 -57 -53 -76 -9 -19 -28 -40 -41 -46 -14 -7 -25 -17 -25 -23 0 -12 -61
-8 -91 5 -12 5 -18 -2 -27 -31 -10 -33 -10 -40 5 -50 15 -12 15 -16 -2 -54
-10 -22 -28 -47 -39 -54 -19 -14 -19 -15 10 -37 16 -13 32 -22 36 -21 16 5 76
-28 109 -60 l36 -35 239 -7 c131 -4 338 -10 459 -13 l220 -7 13 -28 c26 -54
-18 -120 -158 -238 -121 -101 -352 -230 -538 -299 -52 -19 -69 -31 -90 -64
-59 -94 -93 -106 -181 -66 l-43 20 -49 -27 c-27 -16 -51 -33 -53 -39 -9 -24
-95 -130 -130 -161 -20 -17 -36 -36 -36 -42 0 -11 72 -61 88 -61 4 0 39 -29
78 -64 39 -36 93 -74 124 -87 80 -34 211 -112 224 -132 17 -26 -2 -48 -75 -84
-116 -58 -312 -102 -464 -104 -114 -2 -121 -4 -99 -37 16 -24 16 -26 0 -38
-25 -17 -4 -26 33 -13 41 15 100 4 103 -19 1 -9 2 -24 4 -32 1 -8 2 -32 3 -52
1 -30 5 -38 20 -38 28 0 40 -21 42 -78 2 -29 5 -52 8 -52 12 1 42 28 40 36 -4
25 7 34 79 69 42 20 88 49 102 64 57 61 124 108 245 169 17 9 35 21 41 26 25
25 108 92 124 101 10 6 37 31 60 58 23 26 66 64 94 84 53 39 69 51 89 68 18
16 208 157 245 182 18 13 38 28 45 33 7 6 51 40 98 75 84 63 220 202 268 274
14 20 28 38 33 39 4 2 8 10 8 17 0 7 12 21 28 31 15 9 36 28 47 41 11 13 29
23 38 23 10 0 16 4 12 10 -3 5 2 18 12 28 23 24 42 53 49 75 4 9 10 17 13 17
4 0 23 21 41 48 19 26 45 61 59 78 14 18 36 45 48 60 12 16 47 55 77 88 31 32
56 63 56 68 0 5 23 33 50 62 27 29 50 58 50 65 0 7 5 9 10 6 6 -3 10 1 10 10
0 9 9 25 20 37 11 12 20 28 20 35 0 7 9 17 19 23 17 9 20 6 26 -23 4 -17 13
-42 21 -54 8 -12 10 -24 5 -27 -5 -3 -12 -26 -15 -51 -4 -24 -11 -47 -17 -50
-5 -4 -9 -17 -9 -31 0 -13 -4 -24 -9 -24 -5 0 -17 -24 -27 -52 -15 -48 -39
-95 -54 -108 -3 -3 -16 -22 -29 -42 -12 -21 -27 -38 -32 -38 -5 0 -9 -5 -9
-11 0 -10 -28 -49 -65 -92 -8 -9 -15 -21 -15 -25 0 -4 -9 -14 -20 -22 -11 -8
-20 -20 -20 -27 0 -7 -9 -18 -20 -25 -11 -7 -20 -18 -20 -25 0 -7 -3 -13 -7
-13 -5 0 -19 -18 -33 -40 -13 -22 -28 -40 -32 -40 -4 0 -8 -7 -8 -15 0 -8 -18
-33 -40 -55 -22 -22 -40 -45 -40 -50 0 -6 -7 -10 -15 -10 -7 0 -18 -6 -22 -13
-4 -7 -27 -28 -50 -47 -24 -18 -43 -39 -43 -45 0 -14 -80 -94 -120 -122 -14
-9 -29 -23 -33 -30 -4 -7 -15 -13 -22 -13 -8 0 -15 -7 -15 -15 0 -8 -3 -15 -8
-15 -9 0 -72 -56 -72 -64 0 -8 -67 -83 -125 -141 -28 -27 -83 -70 -122 -95
-40 -25 -72 -51 -72 -57 -1 -7 -8 -13 -16 -13 -7 0 -18 -6 -22 -14 -4 -7 -23
-21 -40 -30 -18 -9 -33 -21 -33 -26 0 -6 -7 -10 -15 -10 -8 0 -15 -4 -15 -8 0
-5 -12 -14 -27 -21 -16 -7 -51 -30 -79 -52 -28 -21 -54 -39 -58 -39 -4 0 -21
-13 -39 -30 -18 -16 -36 -30 -40 -30 -4 0 -22 -13 -40 -30 -18 -16 -35 -30
-39 -30 -4 0 -22 -14 -40 -30 -18 -17 -36 -30 -41 -30 -5 0 -23 -10 -40 -22
-18 -13 -48 -31 -67 -41 -50 -25 -72 -39 -98 -62 -12 -11 -31 -28 -42 -37 -11
-10 -32 -18 -46 -18 -25 0 -113 -61 -123 -84 -2 -6 -15 -20 -27 -33 -16 -16
-24 -35 -24 -59 0 -73 -55 -136 -168 -193 -24 -12 -42 -24 -40 -27 3 -2 71
-28 152 -58 80 -30 172 -69 204 -87 68 -41 207 -177 242 -238 14 -24 56 -78
94 -119 l68 -76 -6 -55 c-6 -55 -5 -57 26 -79 l33 -22 15 47 15 48 59 9 c48 8
64 7 87 -7 28 -16 29 -16 35 11 27 119 46 162 72 162 10 0 23 5 28 10 7 7 16
4 29 -10 16 -18 18 -41 19 -223 1 -168 -2 -210 -16 -247 -9 -25 -22 -88 -29
-140 -26 -211 -82 -407 -132 -459 -33 -36 -139 -69 -237 -75 -66 -4 -77 -8
-96 -31 l-21 -27 -68 21 c-37 12 -93 21 -124 21 -103 0 -344 -59 -471 -115
-31 -13 -73 -25 -95 -26 -111 -7 -349 -249 -495 -505 -46 -80 -89 -168 -97
-197 -35 -138 -129 -347 -166 -372 -12 -8 -44 -43 -72 -79 -50 -65 -107 -112
-123 -103 -4 3 -3 43 4 89 7 46 16 157 20 248 4 91 10 170 14 175 4 6 11 69
15 140 4 72 11 135 17 142 5 7 7 21 4 31 -8 23 18 189 45 291 25 97 24 113
-11 261 -17 69 -33 169 -37 222 -6 95 -5 99 26 162 33 68 97 133 163 167 51
26 231 28 268 2 21 -15 91 -33 191 -49 43 -7 94 16 104 47 4 11 5 22 3 23 -1
2 -51 28 -109 60 -119 63 -167 70 -269 40 -48 -14 -56 -14 -95 0 -76 29 -120
96 -127 191 l-3 50 32 -3 c17 -2 34 1 38 7 3 6 1 11 -5 11 -6 0 -21 9 -33 20
-12 11 -27 18 -35 15 -7 -2 -11 -1 -7 4 3 5 -8 19 -25 31 -30 21 -30 21 -73 2
-24 -11 -64 -22 -90 -26 -46 -7 -46 -7 -67 31 -54 98 -86 148 -94 145 -5 -2
-12 1 -15 7 -4 6 -20 -16 -35 -49 -29 -60 -29 -60 -11 -105 23 -62 13 -200
-21 -266 -28 -57 -95 -116 -145 -129 -34 -9 -40 -16 -58 -65 -29 -78 -64 -144
-110 -210 -22 -31 -44 -77 -50 -103 -26 -121 -48 -171 -113 -249 -99 -122 -93
-109 -74 -138 44 -66 3 -168 -187 -475 -149 -239 -229 -331 -319 -367 -34 -14
-44 -26 -83 -102 -55 -110 -122 -183 -293 -320 -119 -95 -278 -256 -360 -362
-29 -37 -42 -86 -42 -159 0 -61 -3 -71 -39 -122 -65 -93 -89 -141 -96 -190 -7
-46 -46 -100 -62 -84 -5 4 -15 28 -24 54 -8 25 -20 47 -25 49 -6 2 -15 -23
-21 -54 -43 -219 -180 -805 -201 -858 -51 -125 -84 -218 -89 -252 -14 -96
-100 -367 -144 -454 -19 -38 -54 -56 -75 -38 -31 26 -56 149 -74 367 -10 120
-20 156 -49 167 -20 8 -81 -5 -81 -18 0 -15 -230 -246 -262 -263 -24 -12 -28
-12 -28 0 0 7 7 19 14 26 8 6 22 34 31 61 9 27 20 49 25 49 10 0 20 37 12 44
-6 7 -42 -23 -42 -36 0 -5 -16 -31 -35 -59 -19 -28 -35 -55 -35 -60 0 -5 -5
-9 -11 -9 -16 0 -6 34 41 143 22 50 38 92 37 94 -2 1 -49 -26 -105 -61 -101
-63 -162 -86 -162 -60 0 16 17 27 22 15 5 -16 77 52 81 76 1 11 9 28 16 37 7
9 9 16 3 16 -5 0 -36 -26 -67 -58 -46 -45 -56 -52 -50 -32 4 14 29 54 56 89
27 36 47 66 45 68 -2 3 -32 -10 -66 -27 -34 -17 -65 -29 -68 -26 -3 4 8 20 24
37 24 25 26 31 14 39 -11 7 -22 1 -42 -23 -19 -21 -28 -27 -28 -16 0 17 46 85
73 108 27 22 20 30 -18 18 -40 -12 -57 -3 -30 17 14 10 15 15 5 21 -9 5 -20
-1 -32 -18 -20 -28 -38 -35 -38 -16 0 21 69 104 122 147 96 78 147 112 164
112 25 0 214 199 214 225 0 11 13 30 29 43 16 12 112 147 214 300 102 152 198
289 212 305 30 32 27 41 -20 57 -26 9 -48 9 -90 0 -30 -6 -59 -9 -65 -5 -5 3
-10 25 -10 49 0 46 18 67 125 151 28 22 75 63 105 91 45 42 67 54 118 67 35 9
70 22 78 28 24 20 92 142 141 252 65 147 111 291 139 435 17 91 34 145 60 196
48 95 154 236 196 260 18 11 76 51 128 88 52 37 102 68 110 68 9 0 22 10 28
23 6 12 36 76 67 141 58 123 118 219 160 258 l24 23 -28 45 c-26 40 -30 55
-33 145 l-4 100 57 70 56 70 12 145 12 145 65 145 c36 80 94 195 129 256 l64
112 -19 68 c-43 148 -18 278 62 331 42 28 41 26 63 208 18 152 37 222 71 277
44 69 56 117 60 235 3 104 2 112 -16 118 -15 5 -19 14 -16 38 2 19 10 33 19
35 28 6 57 116 57 216 0 42 -6 61 -35 104 l-35 52 25 49 c13 27 34 52 45 56
30 9 41 64 20 92 -10 13 -21 39 -24 58 -4 19 -10 35 -15 35 -21 0 -148 -124
-171 -167 -58 -110 -69 -121 -159 -170 -47 -25 -95 -54 -107 -65 -11 -10 -37
-19 -60 -20 -37 -1 -43 -6 -100 -83 -59 -78 -61 -82 -47 -108 12 -23 11 -34
-3 -84 -19 -67 -67 -119 -173 -188 -81 -53 -127 -100 -137 -140 -4 -16 -35
-59 -69 -95 -136 -143 -200 -240 -189 -285 4 -15 2 -25 -5 -25 -16 0 -14 -21
4 -40 12 -14 13 -23 5 -45 -7 -19 -7 -39 0 -66 6 -22 10 -79 9 -127 -1 -66 3
-96 15 -121 24 -45 13 -160 -21 -217 -13 -23 -30 -74 -37 -113 -12 -65 -18
-76 -60 -114 -25 -24 -51 -57 -57 -74 -7 -22 -19 -34 -38 -38 -30 -6 -75 7
-86 26 -15 23 -8 90 12 117 51 69 63 113 41 155 -6 12 -14 29 -18 37 -10 21
-57 25 -83 7 -33 -21 -150 -203 -180 -277 l-25 -64 34 -38 c50 -56 44 -118
-12 -118 -13 0 -26 5 -29 10 -15 24 -25 6 -25 -44 0 -47 -4 -57 -26 -75 -15
-12 -33 -21 -40 -21 -20 0 -56 39 -50 55 2 7 -2 44 -10 82 -8 37 -14 79 -14
93 0 14 -21 52 -45 84 -25 33 -45 65 -45 72 0 6 -7 25 -15 40 -8 16 -15 36
-15 45 0 9 -7 23 -17 30 -38 32 -44 71 -27 184 12 83 13 109 4 121 -9 10 -10
17 -1 28 16 20 61 151 61 180 0 37 10 56 30 56 40 0 80 86 84 182 3 57 20 93
40 85 54 -20 54 -20 70 34 9 29 16 62 16 73 0 34 28 55 66 49 27 -4 35 -2 41
13 4 10 19 31 35 48 15 16 28 33 28 38 0 26 111 250 171 349 26 41 65 112 88
157 55 109 101 180 146 222 20 19 55 62 78 95 65 95 125 155 156 155 24 0 26
-3 26 -39 0 -22 3 -43 7 -46 7 -7 138 82 138 93 -1 34 -16 33 -470 -28 -104
-14 -238 -21 -471 -26 -342 -7 -383 -4 -534 38 -262 73 -324 91 -445 132 -251
84 -520 215 -632 308 -154 127 -252 238 -231 259 20 20 137 38 249 39 138 0
321 -14 529 -41 143 -19 169 -20 245 -8 104 15 406 15 590 0 302 -26 756 -69
888 -85 l102 -12 65 67 c36 37 65 71 65 76 0 5 -98 28 -217 52 -269 53 -327
68 -478 124 -66 24 -210 75 -320 112 -228 76 -277 100 -354 170 -31 28 -76 66
-101 85 -73 56 -204 172 -447 395 -36 33 -93 94 -126 135 -33 41 -77 93 -96
115 -44 50 -112 132 -129 156 -7 10 -50 94 -96 186 -155 313 -166 341 -166
425 0 39 4 50 28 67 40 30 78 26 204 -25z m4105 -4986 c-16 -10 -57 -10 -57 0
0 4 16 8 35 8 21 0 30 -3 22 -8z m-3497 -4618 c0 -5 -5 -10 -11 -10 -5 0 -7 5
-4 10 3 6 8 10 11 10 2 0 4 -4 4 -10z"/>
<path d="M4936 6431 c-14 -15 -26 -30 -26 -35 0 -11 -76 -120 -94 -135 -20
-17 -21 -75 -1 -91 18 -15 20 -71 3 -88 -9 -9 -8 -18 1 -39 20 -43 43 -115 46
-141 1 -12 12 -33 24 -46 12 -12 21 -35 21 -53 0 -16 8 -37 18 -46 16 -14 21
-13 62 15 39 27 50 30 93 24 27 -3 65 -15 84 -26 39 -23 41 -22 107 33 l29 24
-34 57 c-57 97 -61 106 -71 182 -8 60 -7 79 5 104 14 27 14 30 -1 30 -10 0
-24 17 -35 43 -23 54 -40 74 -108 124 -31 23 -66 53 -76 67 l-20 25 -27 -28z"/>
</g>
</svg>
